<svg version="1" xmlns="http://www.w3.org/2000/svg" width="933.333" height="933.333" viewBox="0 0 700.000000 700.000000"><path d="M323.5 36.1c-25 2-56.3 8.8-79.8 17.3-44.6 16.2-82.6 40.4-116.2 74.1-50.3 50.2-80 110.8-90.2 183.5-2.4 17.4-2.4 60.4 0 78 7.5 53.7 26 101.3 55.9 143.4 46.6 65.4 116.8 110.9 195.4 126.5 22.5 4.5 33.9 5.5 61.4 5.5s38.8-1 61.4-5.5c67.4-13.3 129.5-49.1 174.9-100.9 42.1-48 67.3-103.9 76.4-169 2.4-17.5 2.4-60.5 0-78-6.4-46.3-21-87.8-44.1-125.4C556.4 84 442.7 26.4 323.5 36.1zM399.7 177c9.4 1.6 20.5 4 24.6 5.4 13.1 4.4 30.7 12.7 32.4 15.3 2.5 3.8 6.3 16.3 6.3 20.7 0 2.2-1.1 7.6-2.5 12.1-2.6 8.6-4.6 11.2-15 19-5 3.7-5 3.7-12.5 3.2-4.1-.4-15.7-2.6-25.6-5.1-35.7-8.8-42.1-9.2-64.3-3.5-21.5 5.5-29.9 10.4-37.1 21.4-3.3 5.1-4.2 7.4-4.7 12.8-.3 3.5-.3 7.6 0 8.9.7 2.6 11.3 10.9 17 13.3 4.1 1.7 19.4 5.1 44.2 9.9 19.8 3.7 45.5 11.6 57 17.4 10.2 5.1 25.4 14.8 29.8 19 2.1 2.1 5.5 5.9 7.5 8.7 2 2.7 6.2 8.1 9.4 11.9 6.8 8.1 8.6 11.7 13.5 27.3 3.7 11.6 3.8 12 3.7 26.8-.3 22.5-1.5 27.6-11.9 50.2-7.7 16.5-25.3 32.3-53 47.4-22.1 12.2-22.1 12.2-52.6 11.7l-24.4-.5-15.5-4.5c-28.9-8.6-31.2-9.5-52.8-22.5-18.6-11.2-20.8-12.8-30.9-22.7-10.6-10.2-13.3-15.5-13.3-25.4.1-10.9 2.1-17.3 7.8-24.5 4.4-5.4 6.3-7 11-8.8 9.3-3.6 16-3.2 26.2 1.7 7.3 3.5 9.6 5.2 15.5 11.8 6.5 7.3 7.8 8.2 20 14.1 17.3 8.4 33 12.3 53.7 13.2 13.1.5 15.1.4 21.9-1.6 9.9-3 14.2-5.7 21.5-13.3 6.3-6.6 8.6-11.5 10-22 .9-6.8-2.9-19.8-7.7-25.8-8.2-10.4-9.4-11.1-25.5-16.2-8.2-2.6-22.1-6.1-30.9-7.8-18.9-3.7-20.7-4.1-39.3-9.1-15-4.1-20.3-6.4-36.7-16-10.8-6.3-14.5-9.7-25.4-23.4-6.1-7.6-7.6-10.3-10-18-4-12.3-7.1-29.1-7.1-38 0-7.2.2-7.7 7.9-23.2 8.6-17 11.3-20.6 29.4-39.2 10.1-10.3 10.1-10.3 26.4-18.2 24.6-12 26.8-12.5 66.3-17.3 6-.7 17.8.5 35.7 3.4z"/></svg>